<svg xmlns="http://www.w3.org/2000/svg" width="1120" height="760" viewBox="0 0 1120 760">
<style>
  .title { font: 700 24px Arial, sans-serif; fill: #1f2937; }
  .boundary { fill: #ffffff; stroke: #374151; stroke-width: 1.8; }
  .boundary-title { font: 700 16px Arial, sans-serif; fill: #374151; }
  .actor circle, .actor line { fill: #ffffff; stroke: #111827; stroke-width: 2; }
  .actor text { font: 600 13px Arial, sans-serif; fill: #111827; }
  .usecase ellipse { fill: #eff6ff; stroke: #1d4ed8; stroke-width: 2; }
  .usecase text { font: 600 13px Arial, sans-serif; fill: #111827; }
  .assoc { stroke: #4b5563; stroke-width: 1.5; }
  .include { stroke: #7c3aed; stroke-width: 1.4; stroke-dasharray: 6 5; marker-end: url(#arrow); }
  .rel-label { font: 12px Arial, sans-serif; fill: #6d28d9; paint-order: stroke; stroke: #fff; stroke-width: 4px; }
</style>
<defs>
  <marker id="arrow" markerWidth="10" markerHeight="10" refX="8" refY="3" orient="auto" markerUnits="strokeWidth">
    <path d="M0,0 L0,6 L9,3 z" fill="#7c3aed"/>
  </marker>
</defs>
<rect width="100%" height="100%" fill="#ffffff"/>
<text class="title" x="560.0" y="36" text-anchor="middle">UC1 - Proposal Generator</text>
<rect class="boundary" x="195" y="55" width="720" height="670" rx="4"/>
<text class="boundary-title" x="215" y="80">System Boundary</text>

<line class="assoc" x1="118" y1="160" x2="192" y2="105"/>
<line class="assoc" x1="118" y1="160" x2="192" y2="205"/>
<line class="assoc" x1="118" y1="160" x2="192" y2="305"/>
<line class="assoc" x1="118" y1="160" x2="192" y2="405"/>
<line class="assoc" x1="118" y1="160" x2="192" y2="505"/>
<line class="assoc" x1="118" y1="160" x2="542" y2="205"/>
<line class="assoc" x1="118" y1="160" x2="542" y2="330"/>
<line class="assoc" x1="118" y1="410" x2="542" y2="455"/>
<line class="assoc" x1="942" y1="190" x2="778" y2="455"/>
<line class="assoc" x1="942" y1="365" x2="778" y2="580"/>
<line class="assoc" x1="942" y1="535" x2="778" y2="80"/>
<line class="include" x1="570" y1="205" x2="750" y2="580"/><text class="rel-label" x="660.0" y="386.5" text-anchor="middle">&lt;&lt;include&gt;&gt;</text>
<line class="include" x1="570" y1="205" x2="750" y2="80"/><text class="rel-label" x="660.0" y="136.5" text-anchor="middle">&lt;&lt;include&gt;&gt;</text>
<line class="include" x1="400" y1="405" x2="570" y2="455"/><text class="rel-label" x="485.0" y="424.0" text-anchor="middle">&lt;&lt;include&gt;&gt;</text>
<line class="include" x1="570" y1="330" x2="750" y2="205"/><text class="rel-label" x="660.0" y="261.5" text-anchor="middle">&lt;&lt;extend&gt;&gt;</text>

<g class="usecase" id="uc0">
  <ellipse cx="310" cy="105" rx="118" ry="42"/>
  <text x="310" y="96" text-anchor="middle"><tspan x="310" y="96">Login dan buka</tspan><tspan x="310" y="115">dashboard</tspan></text>
</g>

<g class="usecase" id="uc1">
  <ellipse cx="310" cy="205" rx="118" ry="42"/>
  <text x="310" y="196" text-anchor="middle"><tspan x="310" y="196">Isi brief</tspan><tspan x="310" y="215">proposal</tspan></text>
</g>

<g class="usecase" id="uc2">
  <ellipse cx="310" cy="305" rx="118" ry="42"/>
  <text x="310" y="305" text-anchor="middle"><tspan x="310" y="305">Unggah KAK/TOR</tspan></text>
</g>

<g class="usecase" id="uc3">
  <ellipse cx="310" cy="405" rx="118" ry="42"/>
  <text x="310" y="396" text-anchor="middle"><tspan x="310" y="396">Pilih konteks</tspan><tspan x="310" y="415">internal klien</tspan></text>
</g>

<g class="usecase" id="uc4">
  <ellipse cx="310" cy="505" rx="118" ry="42"/>
  <text x="310" y="496" text-anchor="middle"><tspan x="310" y="496">Preview outline dan</tspan><tspan x="310" y="515">precheck generate</tspan></text>
</g>

<g class="usecase" id="uc5">
  <ellipse cx="660" cy="205" rx="118" ry="42"/>
  <text x="660" y="196" text-anchor="middle"><tspan x="660" y="196">Generate proposal</tspan><tspan x="660" y="215">DOCX</tspan></text>
</g>

<g class="usecase" id="uc6">
  <ellipse cx="660" cy="330" rx="118" ry="42"/>
  <text x="660" y="321" text-anchor="middle"><tspan x="660" y="321">Pantau job dan</tspan><tspan x="660" y="340">unduh proposal</tspan></text>
</g>

<g class="usecase" id="uc7">
  <ellipse cx="660" cy="455" rx="118" ry="42"/>
  <text x="660" y="446" text-anchor="middle"><tspan x="660" y="446">Aktifkan endpoint</tspan><tspan x="660" y="465">data internal</tspan></text>
</g>

<g class="usecase" id="uc8">
  <ellipse cx="660" cy="580" rx="118" ry="42"/>
  <text x="660" y="571" text-anchor="middle"><tspan x="660" y="571">Ambil konteks</tspan><tspan x="660" y="590">OSINT</tspan></text>
</g>

<g class="usecase" id="uc9">
  <ellipse cx="660" cy="80" rx="118" ry="42"/>
  <text x="660" y="71" text-anchor="middle"><tspan x="660" y="71">Susun narasi dan</tspan><tspan x="660" y="90">quality gate</tspan></text>
</g>

<g class="actor">
  <circle cx="80" cy="116" r="15"/>
  <line x1="80" y1="131" x2="80" y2="178"/>
  <line x1="54" y1="148" x2="106" y2="148"/>
  <line x1="80" y1="178" x2="57" y2="212"/>
  <line x1="80" y1="178" x2="103" y2="212"/>
  <text x="80" y="238" text-anchor="middle"><tspan x="80" dy="0">Pengguna</tspan><tspan x="80" dy="14">Proposal</tspan></text>
</g>

<g class="actor">
  <circle cx="80" cy="366" r="15"/>
  <line x1="80" y1="381" x2="80" y2="428"/>
  <line x1="54" y1="398" x2="106" y2="398"/>
  <line x1="80" y1="428" x2="57" y2="462"/>
  <line x1="80" y1="428" x2="103" y2="462"/>
  <text x="80" y="488" text-anchor="middle"><tspan x="80" dy="0">Admin /</tspan><tspan x="80" dy="14">Operator Data</tspan></text>
</g>

<g class="actor">
  <circle cx="980" cy="146" r="15"/>
  <line x1="980" y1="161" x2="980" y2="208"/>
  <line x1="954" y1="178" x2="1006" y2="178"/>
  <line x1="980" y1="208" x2="957" y2="242"/>
  <line x1="980" y1="208" x2="1003" y2="242"/>
  <text x="980" y="268" text-anchor="middle"><tspan x="980" dy="0">Internal API</tspan><tspan x="980" dy="14">/ APIDog</tspan></text>
</g>

<g class="actor">
  <circle cx="980" cy="321" r="15"/>
  <line x1="980" y1="336" x2="980" y2="383"/>
  <line x1="954" y1="353" x2="1006" y2="353"/>
  <line x1="980" y1="383" x2="957" y2="417"/>
  <line x1="980" y1="383" x2="1003" y2="417"/>
  <text x="980" y="443" text-anchor="middle"><tspan x="980" dy="0">Provider</tspan><tspan x="980" dy="14">OSINT</tspan></text>
</g>

<g class="actor">
  <circle cx="980" cy="491" r="15"/>
  <line x1="980" y1="506" x2="980" y2="553"/>
  <line x1="954" y1="523" x2="1006" y2="523"/>
  <line x1="980" y1="553" x2="957" y2="587"/>
  <line x1="980" y1="553" x2="1003" y2="587"/>
  <text x="980" y="613" text-anchor="middle"><tspan x="980" dy="0">Ollama /</tspan><tspan x="980" dy="14">LLM</tspan></text>
</g>
</svg>